<svg width="250" height="40" viewBox="0 0 250 40" fill="none" xmlns="http://www.w3.org/2000/svg">
<g clip-path="url(#clip0_8634_9314)">
<path d="M36.6506 12.6238C38.3372 12.6238 40.0238 12.0217 41.2504 10.8174C42.477 9.61307 43.2436 7.95716 43.2436 6.30124C43.2436 4.49479 42.6303 2.83888 41.2504 1.63458C40.0238 0.430275 38.3372 -0.171875 36.6506 -0.171875C34.964 -0.171875 33.2775 0.430275 32.0509 1.63458C30.8243 2.83888 30.0576 4.64533 30.0576 6.30124C30.211 11.5701 26.2245 15.9356 21.0114 16.3873C19.7848 16.5378 18.5582 17.1399 17.7916 18.1937C17.025 19.2475 16.565 20.4518 16.7183 21.6561C16.8717 22.8604 17.485 24.0647 18.5582 24.8174C19.6315 25.5701 20.8581 26.0217 22.0847 25.8711C24.3846 25.5701 26.2245 23.9141 26.3778 21.6561C26.9911 16.5378 31.2842 12.6238 36.4973 12.6238H36.6506V12.7744V12.6238Z" fill="white"/>
<path d="M14.112 33.999C16.4119 35.3538 19.1717 36.257 21.9316 36.257C30.2111 36.257 36.9574 29.6334 36.9574 21.5044C36.9574 20.6011 36.1908 19.8484 35.2709 19.8484C34.3509 19.8484 33.5843 20.6011 33.5843 21.5044C33.5843 24.5151 32.3577 27.3753 30.2111 29.6334C28.0646 31.7409 24.9981 32.9452 21.9316 32.9452C18.7117 32.9452 15.7986 31.5904 13.652 29.4829C11.5055 27.3753 10.2789 24.3646 10.4322 21.3538C10.5855 15.1818 15.6452 10.214 21.9316 10.0635C22.8515 10.0635 23.6181 9.31082 23.6181 8.40759C23.6181 7.50437 22.8515 6.75168 21.9316 6.75168C19.0184 6.75168 16.2585 7.50437 14.112 9.00974C13.3454 9.46136 12.5787 9.61189 11.8121 9.31082C10.8922 9.00974 10.2789 8.40759 9.81888 7.80544C9.51223 7.05276 9.3589 6.30007 9.51223 5.54738C10.1255 2.98824 8.43895 0.429101 5.83242 -0.0225117C4.60582 -0.323587 3.22589 -0.0225117 2.15262 0.579639C1.07934 1.18179 0.312716 2.38609 0.00606582 3.59039C-0.147259 4.79469 0.00606579 6.14953 0.772692 7.20329C1.53932 8.25706 2.61259 9.00974 3.83919 9.31082C4.4525 9.46136 5.21912 9.46136 5.83242 9.31082C5.98575 9.31082 6.2924 9.31082 6.44572 9.31082C7.05902 9.31082 7.519 9.46136 8.1323 9.76243C8.7456 10.0635 9.20557 10.6657 9.51223 11.4183C9.66555 12.171 9.51223 12.9237 9.20557 13.5259C7.05902 16.8377 6.44572 20.9022 7.36567 24.6657C8.1323 28.7302 10.5855 31.8915 14.112 33.999Z" fill="white"/>
<path d="M212.86 10.5166H210.407C204.427 10.5166 199.674 15.0328 199.674 20.7532C199.674 26.4736 204.427 30.9897 210.407 30.9897C216.386 30.9897 221.139 26.4736 221.139 20.7532V2.68868C221.139 2.08653 220.679 1.48438 219.913 1.48438C219.146 1.48438 218.686 1.93599 218.686 2.68868V20.7532C218.686 25.1188 214.853 28.7317 210.253 28.7317C205.654 28.7317 201.82 25.1188 201.82 20.7532C201.82 16.3876 205.654 12.7747 210.253 12.7747H212.706C213.32 12.7747 213.933 12.3231 213.933 11.5704C213.933 10.8177 213.473 10.5166 212.86 10.5166Z" fill="white"/>
<path d="M78.8533 29.4848H81.3065C87.2862 29.4848 92.0393 24.9687 92.0393 19.2483C92.0393 13.6784 87.2862 9.01172 81.3065 9.01172C75.3268 9.01172 70.5737 13.5278 70.5737 19.2483V37.3128C70.5737 37.9149 71.0337 38.5171 71.8003 38.5171C72.567 38.5171 73.0269 38.0655 73.0269 37.3128V19.2483C73.0269 14.8827 76.8601 11.2698 81.4598 11.2698C86.0596 11.2698 89.8927 14.8827 89.8927 19.2483C89.8927 23.6139 86.0596 27.2268 81.4598 27.2268H79.0066C78.3933 27.2268 77.78 27.6784 77.78 28.4311C77.78 29.1838 78.24 29.4848 78.8533 29.4848Z" fill="white"/>
<path fill-rule="evenodd" clip-rule="evenodd" d="M238.005 10.5156C232.332 10.5156 227.579 15.0318 227.579 20.7522C227.579 26.3221 232.178 30.9887 238.005 30.9887C243.831 30.9887 248.431 26.4726 248.431 20.7522C248.431 15.1823 243.678 10.5156 238.005 10.5156ZM238.005 28.7307C233.558 28.7307 229.878 25.1178 229.878 20.7522C229.878 16.3866 233.558 12.7737 238.005 12.7737C242.451 12.7737 246.131 16.3866 246.131 20.7522C246.131 25.1178 242.451 28.7307 238.005 28.7307Z" fill="white"/>
<path fill-rule="evenodd" clip-rule="evenodd" d="M121.477 10.5156C115.804 10.5156 111.051 15.0318 111.051 20.7522C111.051 26.3221 115.651 30.9887 121.477 30.9887C127.304 30.9887 131.903 26.4726 131.903 20.7522C131.903 15.1823 127.304 10.5156 121.477 10.5156ZM121.477 28.7307C117.031 28.7307 113.351 25.1178 113.351 20.7522C113.351 16.3866 117.031 12.7737 121.477 12.7737C125.924 12.7737 129.604 16.3866 129.604 20.7522C129.604 25.1178 125.924 28.7307 121.477 28.7307Z" fill="white"/>
<path fill-rule="evenodd" clip-rule="evenodd" d="M184.341 10.5156C178.668 10.5156 173.915 15.0318 173.915 20.7522C173.915 26.3221 178.515 30.9887 184.341 30.9887C190.014 30.9887 194.767 26.4726 194.767 20.7522C194.767 15.1823 190.014 10.5156 184.341 10.5156ZM184.341 28.7307C179.895 28.7307 176.215 25.1178 176.215 20.7522C176.215 16.3866 179.895 12.7737 184.341 12.7737C188.788 12.7737 192.467 16.3866 192.467 20.7522C192.467 25.1178 188.788 28.7307 184.341 28.7307Z" fill="white"/>
<path d="M167.476 30.9887C168.089 30.9887 168.702 30.5371 168.702 29.7844V18.7952C168.702 14.2791 164.869 10.5156 160.269 10.5156C157.509 10.5156 154.903 11.8705 153.216 14.1285L152.91 14.5801L152.603 14.1285C151.07 11.8705 148.463 10.5156 145.55 10.5156C140.95 10.5156 137.117 14.2791 137.117 18.7952V29.7844C137.117 30.3866 137.577 30.9887 138.344 30.9887C139.11 30.9887 139.57 30.5371 139.57 29.7844V18.7952C139.57 15.4834 142.33 12.7737 145.703 12.7737C149.077 12.7737 151.836 15.4834 151.836 18.7952V29.7844C151.836 30.3866 152.296 30.9887 153.063 30.9887C153.83 30.9887 154.29 30.5371 154.29 29.7844V18.7952C154.29 15.4834 157.049 12.7737 160.423 12.7737C163.796 12.7737 166.556 15.4834 166.556 18.7952V29.7844C166.402 30.5371 166.862 30.9887 167.476 30.9887Z" fill="white"/>
<path d="M107.832 11.7199C107.832 11.1178 107.372 10.5156 106.605 10.5156C103.999 10.5156 101.852 11.5694 100.319 13.3758L99.5523 14.2791V11.8705C99.5523 11.2683 99.0923 10.6662 98.3257 10.6662C97.5591 10.6662 97.0991 11.1178 97.0991 11.8705V29.935C97.0991 30.5371 97.5591 31.1393 98.3257 31.1393C99.0923 31.1393 99.5523 30.6877 99.5523 29.935V20.9027C99.5523 20.6016 100.626 12.7737 106.605 12.7737C107.219 12.7737 107.832 12.3221 107.832 11.7199Z" fill="white"/>
</g>
<defs>
<clipPath id="clip0_8634_9314">
<rect width="249" height="40" fill="white" transform="translate(0.00585938)"/>
</clipPath>
</defs>
</svg>
