<svg width="88" height="88" viewBox="0 0 88 88" fill="none" xmlns="http://www.w3.org/2000/svg">
<path d="M62.4995 10.7284C62.3554 11.0767 62.1539 11.3676 61.8951 11.6025C61.6363 11.8374 61.3055 11.9948 60.8999 12.0736C60.4943 12.1523 60.0061 12.143 59.4364 12.0442C58.8668 11.9455 58.1931 11.7359 57.4166 11.413C56.6402 11.0901 56.0438 10.7378 55.6249 10.3561C55.2074 9.97445 54.9139 9.58479 54.7445 9.18979C54.575 8.79479 54.499 8.40379 54.5177 8.01546C54.535 7.62846 54.5977 7.26549 54.7031 6.9292L55.8784 7.41762C55.6743 8.03414 55.7343 8.60396 56.0599 9.1244C56.3854 9.64618 56.983 10.0879 57.8555 10.4495C58.7574 10.8245 59.5125 11.0153 60.1208 11.0207C60.7305 11.026 61.1347 10.7978 61.3348 10.3348C61.5363 9.8717 61.4455 9.44467 61.0627 9.051C60.6798 8.65734 60.0087 8.22764 59.0509 7.75924C58.4105 7.46699 57.8649 7.18809 57.4153 6.92387C56.967 6.65964 56.6188 6.38474 56.3734 6.1005C56.1266 5.81626 55.9851 5.51067 55.9491 5.18239C55.9118 4.85411 55.9811 4.47646 56.1599 4.04809C56.292 3.73049 56.4921 3.45826 56.7589 3.2314C57.0271 3.00454 57.3673 2.84841 57.7795 2.76434C58.1917 2.68027 58.676 2.6776 59.2323 2.75633C59.7886 2.8364 60.4223 3.02323 61.1307 3.31814C61.8925 3.63441 62.4755 3.97737 62.8824 4.34568C63.2879 4.71399 63.5747 5.08898 63.7415 5.4693C63.9083 5.85096 63.9803 6.23128 63.9563 6.6116C63.9323 6.99192 63.8682 7.3509 63.7615 7.68852L62.5862 7.2001C62.7009 6.8398 62.7356 6.51419 62.6929 6.22327C62.6489 5.93236 62.5395 5.66814 62.3647 5.4306C62.19 5.19307 61.9605 4.98089 61.6737 4.79273C61.3868 4.60457 61.06 4.43376 60.6905 4.28029C60.2689 4.10548 59.8753 3.97203 59.5111 3.88129C59.1456 3.79054 58.8161 3.74651 58.5252 3.75051C58.2331 3.75451 57.9836 3.81189 57.7782 3.92132C57.5727 4.03075 57.4193 4.20423 57.3219 4.44043C57.2285 4.66996 57.2018 4.88347 57.2472 5.07964C57.2925 5.2758 57.4086 5.46797 57.5994 5.65613C57.7902 5.84428 58.0543 6.03645 58.3932 6.23261C58.732 6.43011 59.1389 6.64496 59.6152 6.87716C60.2796 7.19743 60.8345 7.49902 61.2801 7.78326C61.7257 8.0675 62.0672 8.35975 62.3074 8.65867C62.5475 8.95893 62.6822 9.27386 62.7129 9.60748C62.7423 9.94109 62.6716 10.3147 62.4995 10.7284Z" fill="white"/>
<path d="M71.0534 16.6717C70.2516 17.3269 69.3925 17.6005 68.4747 17.491C67.5568 17.3816 66.6069 16.9479 65.6264 16.1873C65.0314 15.7269 64.5618 15.2358 64.2149 14.714C63.8694 14.1922 63.6493 13.6598 63.5546 13.1153C63.4598 12.5709 63.4905 12.0211 63.6479 11.4646C63.8054 10.9081 64.0909 10.3636 64.5018 9.83253L64.6338 9.66172C65.0607 9.11058 65.525 8.68756 66.0293 8.38864C66.5336 8.08972 67.0605 7.91891 67.6115 7.87487C68.1625 7.83083 68.7321 7.91223 69.3205 8.12041C69.9088 8.32859 70.5011 8.6622 71.0961 9.12259C71.6017 9.51493 72.0233 9.92194 72.3595 10.345C72.6957 10.7667 72.9372 11.2004 73.0852 11.6434C73.2333 12.0864 73.284 12.5402 73.2413 13.0019C73.1973 13.4636 73.0452 13.928 72.7851 14.3951L71.7592 13.6011C71.8872 13.3048 71.9566 12.9965 71.9673 12.6763C71.9779 12.356 71.9313 12.0371 71.8285 11.7181C71.7258 11.3992 71.5604 11.0909 71.3336 10.788C71.1068 10.4851 70.82 10.1995 70.4718 9.92995C70.0102 9.57097 69.5526 9.32543 69.099 9.19199C68.6454 9.05854 68.2092 9.02117 67.7876 9.08123C67.3674 9.13994 66.9671 9.29341 66.5883 9.54162C66.208 9.78983 65.8625 10.1154 65.549 10.5211C65.2502 10.9081 65.0314 11.3098 64.894 11.7301C64.7552 12.1505 64.7112 12.5709 64.7592 12.9925C64.8073 13.4142 64.9527 13.8279 65.1955 14.2349C65.4383 14.6406 65.7905 15.0223 66.2521 15.3799C66.9538 15.9244 67.6395 16.2393 68.3066 16.326C68.9736 16.4114 69.5539 16.2673 70.0489 15.891L71.0534 16.6717Z" fill="white"/>
<path d="M73.1095 18.5235L70.6454 20.3624L69.9424 19.4189L76.6782 14.3906L80.032 18.8864C80.2948 19.2387 80.4883 19.595 80.611 19.9527C80.7337 20.3103 80.7791 20.6586 80.7471 20.9976C80.7151 21.3365 80.603 21.6648 80.4109 21.9824C80.2175 22.3 79.94 22.5962 79.5744 22.8698C79.0208 23.2528 78.4978 23.441 78.0042 23.4356C77.5106 23.4303 77.041 23.2635 76.5968 22.9352L75.1306 26.3528L74.3048 25.2452L75.7176 22.0184L73.1095 18.5235ZM73.9566 17.8923L76.37 21.1257C76.7862 21.6835 77.2051 22.0171 77.6267 22.1279C78.0482 22.2386 78.4671 22.1372 78.8847 21.8263C79.2956 21.5193 79.5184 21.1537 79.5544 20.7267C79.5904 20.2996 79.4157 19.8272 79.0275 19.3068L76.5354 15.9666L73.9566 17.8923Z" fill="white"/>
<path d="M79.3949 25.1823C80.114 24.9314 80.7743 24.822 81.3773 24.8527C81.9803 24.8821 82.5246 25.0342 83.0116 25.3064C83.4985 25.5786 83.9268 25.959 84.2976 26.446C84.6685 26.9331 84.9834 27.5136 85.2422 28.1875C85.501 28.8601 85.6504 29.5033 85.6931 30.1172C85.7358 30.731 85.6651 31.3022 85.4823 31.8319C85.2995 32.3617 84.9954 32.8368 84.5711 33.2625C84.1469 33.6869 83.5906 34.0432 82.9035 34.3327L82.7021 34.4101C81.9977 34.6543 81.3467 34.7611 80.7476 34.7291C80.1486 34.697 79.6083 34.5449 79.1254 34.2713C78.6425 33.9978 78.2156 33.6161 77.8447 33.129C77.4738 32.6406 77.159 32.0615 76.9002 31.3876C76.6413 30.7137 76.4879 30.0731 76.4372 29.4619C76.3879 28.8508 76.4519 28.2823 76.632 27.7538C76.8121 27.2254 77.1109 26.7516 77.5312 26.3286C77.9514 25.9056 78.5051 25.5493 79.1921 25.2597L79.3949 25.1823ZM84.2536 28.5652C84.0562 28.0487 83.8094 27.6057 83.5119 27.2347C83.2157 26.8637 82.8768 26.5822 82.4993 26.3887C82.1218 26.1952 81.7002 26.0951 81.2399 26.0871C80.7783 26.0804 80.2781 26.1792 79.7404 26.386C79.2255 26.5835 78.8012 26.8384 78.4704 27.1493C78.1395 27.4602 77.8981 27.8152 77.7473 28.2115C77.5952 28.6079 77.5312 29.0442 77.5539 29.5193C77.5765 29.9944 77.6886 30.4908 77.886 31.0059C78.0835 31.521 78.3303 31.9654 78.6278 32.3364C78.9253 32.7074 79.2615 32.9889 79.6404 33.1824C80.0192 33.3759 80.4355 33.4773 80.8891 33.488C81.3426 33.4974 81.8323 33.4026 82.3552 33.2024C82.8715 33.0049 83.2957 32.7501 83.6306 32.4365C83.9641 32.1242 84.2123 31.7679 84.371 31.3676C84.5298 30.9672 84.6005 30.5295 84.5805 30.0531C84.5604 29.578 84.4524 29.0803 84.2536 28.5652Z" fill="white"/>
<path d="M80.7373 43.5389L79.6874 43.6603L78.8669 36.573L87.2156 35.6055L87.3517 36.7745L80.0516 37.6192L80.7373 43.5389Z" fill="white"/>
<path d="M79.9477 51.6397L78.8965 51.5289L79.6396 44.4336L87.9989 45.309L87.8762 46.4793L80.5681 45.7133L79.9477 51.6397Z" fill="white"/>
<path d="M76.8575 67.1415C76.1557 66.7571 75.6034 66.3474 75.2019 65.9137C74.8003 65.48 74.5335 65.0183 74.3988 64.5299C74.264 64.0415 74.252 63.5264 74.3614 62.9833C74.4721 62.4415 74.6896 61.8716 75.0164 61.2738L77.1083 57.4492L84.4804 61.4846L82.6821 64.7714C82.502 65.1024 82.3032 65.4293 82.0897 65.7549C81.8763 66.0805 81.6402 66.3781 81.3827 66.6477C81.1252 66.9186 80.8437 67.1495 80.5382 67.343C80.2327 67.5365 79.8965 67.6672 79.5296 67.7353C79.1641 67.8047 78.7625 67.7967 78.329 67.7153C77.8954 67.6339 77.4218 67.451 76.9095 67.1708L76.8575 67.1415ZM77.4712 58.9892L76.1397 61.4233C75.7902 62.0625 75.5741 62.6149 75.4927 63.082C75.4113 63.5491 75.4367 63.9574 75.5688 64.307C75.7008 64.6567 75.9236 64.9676 76.2385 65.2345C76.552 65.5027 76.9308 65.7576 77.3738 65.9991C77.838 66.2527 78.2649 66.4142 78.6558 66.4822C79.0467 66.5503 79.4189 66.5183 79.7684 66.3861C80.118 66.254 80.4542 66.0178 80.773 65.6762C81.0918 65.3346 81.4107 64.8822 81.7282 64.3164L82.9902 62.0091L77.4712 58.9892Z" fill="white"/>
<path d="M75.9565 68.1963C76.4848 68.7434 76.8623 69.2972 77.0891 69.8564C77.3146 70.4169 77.4066 70.9747 77.364 71.5298C77.3213 72.0849 77.1572 72.6334 76.8703 73.1765C76.5835 73.7183 76.19 74.2481 75.6884 74.7645C75.1867 75.281 74.6665 75.688 74.1275 75.9856C73.5885 76.2818 73.0402 76.458 72.4839 76.5154C71.9276 76.5714 71.3673 76.4967 70.8043 76.2898C70.2413 76.083 69.6837 75.7294 69.1327 75.2276L68.9779 75.0768C68.4603 74.5417 68.0894 73.9946 67.8667 73.4367C67.6439 72.8789 67.5545 72.3251 67.5998 71.7713C67.6452 71.2175 67.812 70.6704 68.0974 70.1286C68.3843 69.5868 68.7778 69.057 69.2794 68.5406C69.7811 68.0228 70.2987 67.6131 70.8323 67.3116C71.3659 67.0086 71.9102 66.8285 72.4639 66.7698C73.0175 66.711 73.5752 66.7831 74.1355 66.9873C74.6958 67.1915 75.2521 67.5437 75.8031 68.0455L75.9565 68.1963ZM74.9306 74.0306C75.3161 73.6343 75.6136 73.2232 75.8244 72.7989C76.0365 72.3745 76.1499 71.9488 76.166 71.5245C76.182 71.0988 76.0966 70.6757 75.9098 70.254C75.723 69.8324 75.4215 69.42 75.008 69.0197C74.6118 68.634 74.2022 68.3578 73.782 68.1883C73.3617 68.0202 72.9375 67.9494 72.5133 67.9774C72.089 68.0068 71.6661 68.1322 71.2459 68.3538C70.8243 68.5753 70.4214 68.8836 70.0372 69.2799C69.6517 69.6762 69.3542 70.0872 69.1434 70.5116C68.9326 70.936 68.8179 71.3617 68.8018 71.7873C68.7858 72.2117 68.8685 72.6321 69.05 73.0484C69.2314 73.4648 69.5236 73.8678 69.9251 74.2588C70.3214 74.6444 70.7309 74.922 71.1552 75.0942C71.5794 75.2663 72.0063 75.341 72.4359 75.317C72.8654 75.293 73.2937 75.1729 73.7166 74.954C74.1395 74.7352 74.5451 74.4269 74.9306 74.0306Z" fill="white"/>
<path d="M64.1655 82.1425L61.9135 74.6922L63.7906 73.6953L69.8607 79.99L68.7787 80.5651L63.1596 74.7362L65.4595 82.3266L63.6038 83.3115L58.6544 77.209L60.3153 85.0556L59.2333 85.6294L57.427 77.0715L59.272 76.092L64.1655 82.1425Z" fill="white"/>
<path d="M54.5973 85.9372L53.2805 78.4255L54.4398 78.2227L55.8913 86.503L53.8689 86.858L47.1824 80.2884L48.4992 87.8001L47.3519 88.0016L45.9004 79.7213L47.9349 79.3636L54.5973 85.9372Z" fill="white"/>
<path d="M25.3898 77.2188C25.5352 76.8719 25.738 76.581 25.9968 76.3474C26.2556 76.1126 26.5878 75.9578 26.9934 75.879C27.3989 75.8003 27.8872 75.8137 28.4569 75.9137C29.0265 76.0138 29.7002 76.226 30.4753 76.5516C31.2504 76.8772 31.8454 77.2309 32.263 77.6138C32.6792 77.9968 32.9714 78.3865 33.1395 78.7828C33.3076 79.1792 33.3823 79.5702 33.3623 79.9572C33.3436 80.3442 33.2809 80.7071 33.1742 81.0434L32.0002 80.551C32.207 79.9345 32.1483 79.3647 31.8241 78.8429C31.5012 78.3211 30.9036 77.8767 30.0324 77.5111C29.1319 77.1334 28.3768 76.9399 27.7685 76.9319C27.1601 76.9239 26.7546 77.1521 26.5518 77.6138C26.349 78.0756 26.4384 78.5039 26.8199 78.8989C27.2015 79.2926 27.8712 79.7263 28.8277 80.1974C29.4681 80.4923 30.0124 80.7725 30.4606 81.0381C30.9089 81.3036 31.2558 81.5799 31.4999 81.8655C31.7454 82.1497 31.8854 82.4566 31.9215 82.7849C31.9575 83.1132 31.8854 83.4908 31.7067 83.9192C31.5733 84.2368 31.3732 84.509 31.1037 84.7346C30.8355 84.9601 30.4953 85.1149 30.0818 85.199C29.6695 85.2817 29.1853 85.283 28.629 85.2016C28.0726 85.1202 27.4403 84.9307 26.7319 84.6345C25.9715 84.3155 25.3885 83.9712 24.9842 83.6016C24.5787 83.2319 24.2932 82.8556 24.1278 82.474C23.9623 82.0923 23.893 81.7107 23.917 81.3303C23.9423 80.95 24.0077 80.591 24.1144 80.2534L25.2884 80.7458C25.1723 81.1061 25.135 81.4304 25.1777 81.7213C25.2204 82.0136 25.3284 82.2778 25.5019 82.5153C25.6753 82.7529 25.9048 82.9664 26.1903 83.1545C26.4757 83.344 26.8026 83.5162 27.1721 83.671C27.5924 83.8471 27.9859 83.9819 28.3501 84.074C28.7143 84.1661 29.0438 84.2114 29.336 84.2074C29.6282 84.2048 29.8776 84.1487 30.0844 84.0393C30.2912 83.9299 30.4433 83.7577 30.542 83.5215C30.6381 83.2933 30.6648 83.0798 30.6207 82.8837C30.578 82.6875 30.4606 82.4953 30.2699 82.3072C30.0804 82.119 29.8163 81.9255 29.4774 81.7267C29.1399 81.5292 28.733 81.313 28.2581 81.0795C27.5937 80.7578 27.0401 80.4536 26.5958 80.1667C26.1516 79.8798 25.81 79.5875 25.5712 79.2873C25.3324 78.987 25.199 78.6707 25.1683 78.3371C25.1443 78.0062 25.2164 77.6312 25.3898 77.2188Z" fill="white"/>
<path d="M16.8513 71.2461C17.6545 70.5936 18.5149 70.3227 19.4328 70.4348C20.3506 70.5469 21.2978 70.9846 22.2771 71.7479C22.8707 72.2109 23.339 72.7034 23.6832 73.2251C24.0274 73.7482 24.2448 74.2807 24.3382 74.8252C24.4316 75.3696 24.3982 75.9208 24.2382 76.4759C24.0794 77.0324 23.7926 77.5755 23.379 78.1053L23.2456 78.2748C22.8174 78.8246 22.3504 79.2476 21.8461 79.5438C21.3405 79.8401 20.8136 80.0096 20.2613 80.0523C19.7103 80.095 19.142 80.0109 18.5536 79.8014C17.9666 79.5919 17.3756 79.2556 16.782 78.7925C16.2777 78.3989 15.8575 77.9892 15.5226 77.5675C15.1878 77.1445 14.9476 76.7094 14.8009 76.265C14.6555 75.8207 14.6048 75.3683 14.6501 74.9066C14.6955 74.4448 14.8489 73.9804 15.1104 73.5147L16.1336 74.3127C16.0042 74.6076 15.9348 74.9159 15.9228 75.2375C15.9122 75.5578 15.9562 75.8767 16.0589 76.1957C16.1616 76.5133 16.3244 76.8242 16.5498 77.1271C16.7753 77.43 17.0621 77.7169 17.409 77.9878C17.8706 78.3481 18.3268 78.595 18.7804 78.7298C19.2327 78.8646 19.6703 78.9033 20.0905 78.8459C20.5107 78.7885 20.9123 78.6364 21.2912 78.3895C21.6714 78.1426 22.0182 77.817 22.3344 77.414C22.6346 77.0284 22.8547 76.6267 22.9935 76.2077C23.1322 75.7886 23.1789 75.3683 23.1322 74.9453C23.0855 74.5236 22.9414 74.1085 22.7 73.7015C22.4585 73.2945 22.1076 72.9129 21.6474 72.5526C20.947 72.0054 20.2626 71.6892 19.5956 71.5998C18.9285 71.5103 18.3469 71.6545 17.8519 72.0295L16.8513 71.2461Z" fill="white"/>
<path d="M14.8155 69.4024L17.2849 67.5702L17.9853 68.515L11.2362 73.5246L7.89431 69.0207C7.63283 68.6671 7.44073 68.3108 7.31933 67.9518C7.19792 67.5929 7.15257 67.2446 7.18592 66.9069C7.21927 66.568 7.33133 66.2397 7.52477 65.9221C7.71822 65.6045 7.99704 65.3096 8.36391 65.0373C8.91889 64.6557 9.44318 64.4689 9.93679 64.4755C10.4304 64.4835 10.8987 64.6517 11.3429 64.98L12.8171 61.5664L13.6402 62.6753L12.2194 65.8994L14.8155 69.4024ZM13.9684 70.0323L11.5644 66.7908C11.1495 66.2317 10.7319 65.8967 10.3103 65.786C9.88877 65.6752 9.46986 65.774 9.0523 66.0849C8.64007 66.3905 8.41594 66.7561 8.37859 67.1832C8.34123 67.6102 8.516 68.0839 8.90288 68.6044L11.3856 71.9512L13.9684 70.0323Z" fill="white"/>
<path d="M8.56142 62.7469C7.84235 62.9964 7.18065 63.1045 6.57898 63.0725C5.97598 63.0418 5.43167 62.8883 4.94607 62.6147C4.46179 62.3412 4.03355 61.9609 3.66268 61.4724C3.29314 60.984 2.9783 60.4022 2.72215 59.7296C2.46601 59.0557 2.31659 58.4125 2.27524 57.7987C2.23388 57.1848 2.30592 56.6137 2.49002 56.0839C2.67413 55.5554 2.97963 55.0804 3.4052 54.656C3.83077 54.2316 4.38709 53.8767 5.0728 53.5898L5.27558 53.5124C5.97998 53.2695 6.63101 53.1641 7.23001 53.1974C7.82901 53.2295 8.36932 53.3842 8.85092 53.6591C9.33252 53.934 9.75809 54.3157 10.129 54.8041C10.4985 55.2925 10.812 55.873 11.0695 56.5469C11.3256 57.2195 11.4791 57.8627 11.5271 58.4739C11.5751 59.0851 11.5097 59.6536 11.3296 60.1807C11.1495 60.7078 10.848 61.1829 10.4265 61.6046C10.0049 62.0262 9.45126 62.3812 8.76287 62.6681L8.56142 62.7469ZM3.70937 59.352C3.90548 59.8684 4.15229 60.3128 4.44845 60.6838C4.74462 61.0547 5.08081 61.3377 5.45969 61.5325C5.83723 61.7273 6.25747 61.8287 6.71906 61.8367C7.18065 61.8448 7.68093 61.7473 8.2199 61.5418C8.73619 61.3457 9.16043 61.0921 9.49128 60.7812C9.82346 60.4716 10.0649 60.1166 10.2184 59.7203C10.3704 59.3239 10.4358 58.8876 10.4131 58.4125C10.3904 57.9374 10.2797 57.441 10.0836 56.9246C9.8875 56.4081 9.6407 55.9651 9.34586 55.5928C9.05103 55.2205 8.71351 54.9389 8.33463 54.7441C7.95709 54.5492 7.54085 54.4478 7.08593 54.4358C6.63234 54.4251 6.14274 54.5185 5.61978 54.7187C5.10349 54.9149 4.67792 55.1698 4.34306 55.482C4.00821 55.7943 3.76007 56.1493 3.59998 56.5496C3.43989 56.9499 3.36918 57.3876 3.38786 57.864C3.40654 58.3404 3.51193 58.8355 3.70937 59.352Z" fill="white"/>
<path d="M7.2567 44.357L8.30662 44.2383L9.10573 51.327L0.754388 52.2691L0.622314 51.1001L7.92374 50.2767L7.2567 44.357Z" fill="white"/>
<path d="M8.07119 36.25L9.12111 36.3634L8.35535 43.4561L0 42.554L0.125404 41.3837L7.43216 42.1723L8.07119 36.25Z" fill="white"/>
<path d="M11.2089 20.765C11.9093 21.152 12.4602 21.5631 12.8605 21.9968C13.2607 22.4331 13.5275 22.8949 13.6596 23.3833C13.793 23.873 13.8037 24.3881 13.6916 24.9299C13.5795 25.4717 13.3594 26.0415 13.0312 26.6367L10.9274 30.4546L3.56592 26.3965L5.3736 23.115C5.55503 22.7854 5.75381 22.4585 5.96993 22.1342C6.18472 21.8099 6.42218 21.5123 6.67966 21.2441C6.93714 20.9759 7.21997 20.7437 7.5268 20.5515C7.83364 20.3594 8.16983 20.2299 8.5367 20.1619C8.90357 20.0951 9.3038 20.1032 9.73737 20.1859C10.171 20.27 10.6446 20.4528 11.1555 20.7344L11.2089 20.765ZM10.5698 28.916L11.9079 26.4859C12.2601 25.848 12.4776 25.2956 12.5603 24.8298C12.643 24.3641 12.619 23.9558 12.4882 23.6048C12.3575 23.2538 12.1347 22.9429 11.8212 22.6747C11.5077 22.4051 11.1302 22.1489 10.6886 21.906C10.2256 21.6511 9.79874 21.4883 9.40786 21.4189C9.01697 21.3495 8.6461 21.3802 8.29523 21.5123C7.94437 21.6445 7.60818 21.878 7.28934 22.2183C6.96916 22.5586 6.65031 23.011 6.33013 23.5754L5.06009 25.8787L10.5698 28.916Z" fill="white"/>
<path d="M12.0958 19.7363C11.5675 19.1879 11.1913 18.6341 10.9672 18.0722C10.7431 17.5118 10.6524 16.954 10.6951 16.3988C10.7391 15.8437 10.9045 15.2952 11.1927 14.7534C11.4808 14.2116 11.8757 13.6832 12.3787 13.1668C12.8816 12.6516 13.4032 12.246 13.9422 11.9497C14.4812 11.6535 15.0295 11.4787 15.5871 11.4239C16.1434 11.3679 16.7038 11.4453 17.2667 11.6521C17.8297 11.8603 18.386 12.2153 18.9357 12.7184L19.0904 12.8692C19.6067 13.4056 19.9763 13.9528 20.1977 14.5106C20.4192 15.0684 20.5072 15.6235 20.4605 16.176C20.4138 16.7298 20.2471 17.2756 19.9589 17.8174C19.6721 18.3592 19.2759 18.8876 18.7729 19.404C18.27 19.9191 17.751 20.3275 17.2174 20.6291C16.6837 20.9307 16.1394 21.1095 15.5845 21.1682C15.0308 21.2256 14.4732 21.1522 13.9142 20.9467C13.3552 20.7412 12.7989 20.3875 12.2493 19.8844L12.0958 19.7363ZM13.1351 13.9047C12.7495 14.2997 12.4494 14.7107 12.2373 15.1351C12.0251 15.5594 11.9104 15.9838 11.8931 16.4095C11.8757 16.8339 11.9611 17.2582 12.1465 17.6799C12.332 18.1016 12.6321 18.514 13.0444 18.917C13.4406 19.3026 13.8488 19.5802 14.2691 19.751C14.6893 19.9218 15.1122 19.9925 15.5364 19.9645C15.9607 19.9365 16.3836 19.8124 16.8051 19.5909C17.2267 19.3707 17.6309 19.0624 18.0165 18.6674C18.402 18.2724 18.7009 17.8614 18.913 17.437C19.1251 17.0127 19.2412 16.5883 19.2572 16.1626C19.2745 15.7383 19.1932 15.3166 19.0117 14.9002C18.8303 14.4839 18.5395 14.0795 18.1392 13.6885C17.7457 13.3029 17.3361 13.024 16.9119 12.8505C16.4876 12.677 16.0607 12.6023 15.6312 12.625C15.2016 12.6476 14.7733 12.7677 14.3491 12.9853C13.9249 13.2028 13.5193 13.5097 13.1351 13.9047Z" fill="white"/>
<path d="M23.9472 5.8004L26.1778 13.2587L24.2968 14.2489L18.2454 7.93555L19.3286 7.36439L24.9304 13.2093L22.6545 5.61358L24.5142 4.63408L29.445 10.7513L27.8067 2.89928L28.89 2.32812L30.671 10.8914L28.822 11.8642L23.9472 5.8004Z" fill="white"/>
<path d="M33.4937 2.04707L34.793 9.56144L33.6337 9.76161L32.2009 1.47725L34.2247 1.12762L40.8951 7.71321L39.5957 0.198835L40.743 0L42.1758 8.28436L40.1414 8.63666L33.4937 2.04707Z" fill="white"/>
</svg>
